<?xml version="1.0" encoding="UTF-8"?><svg id="b" xmlns="http://www.w3.org/2000/svg" width="202.12" height="38.07" viewBox="0 0 202.12 38.07"><defs><style>.e{fill:#eaa06a;stroke-width:0px;}</style></defs><g id="c"><g id="d"><path class="e" d="m15.03,24.2v4.82H0v-4.82h3.63V5.31H0V.49h15.03c3.5,0,6.2.82,8.11,2.46s2.86,3.85,2.86,6.62c0,1.59-.34,3.02-1,4.32-.67,1.29-1.53,2.28-2.57,2.97s-2.24,1.16-3.59,1.42c-1.35.25-3.03.38-5.06.38h-2.73v5.54h3.98Zm-3.98-10.29h1.11c2.54,0,4.18-.41,4.91-1.24.73-.83,1.1-1.86,1.1-3.09,0-1.04-.25-1.92-.76-2.66-.51-.73-1.09-1.18-1.74-1.35s-1.73-.26-3.22-.26h-1.39v8.59Z"/><path class="e" d="m52.68,24.45v4.57h-9.54v-1.69c-1.9,1.32-3.83,1.98-5.78,1.98s-3.41-.54-4.5-1.61-1.63-2.59-1.63-4.55v-9.41h-2.97v-4.57h9.29v12.37c0,.98.15,1.66.45,2.02.3.36.85.54,1.64.54,1.07,0,2.24-.47,3.51-1.42v-8.94h-3.06v-4.57h9.39v15.28h3.2Z"/><path class="e" d="m70.64,23.03l4.92,1.58c-2.06,3.24-5.29,4.86-9.68,4.86-3.5,0-6.23-.92-8.19-2.77-1.96-1.85-2.94-4.27-2.94-7.28s1.01-5.62,3.04-7.67c2.02-2.05,4.6-3.08,7.73-3.08,2.27,0,4.23.57,5.89,1.72,1.65,1.15,2.8,2.58,3.45,4.29.64,1.71.96,3.62.96,5.72h-14.79c.1,1.8.67,3.08,1.71,3.83s2.15,1.13,3.31,1.13c1.52,0,3.05-.78,4.59-2.34Zm-1.21-6.15c-.15-1.11-.58-2.05-1.3-2.83-.72-.78-1.7-1.17-2.95-1.17-2.32,0-3.68,1.33-4.06,4h8.31Z"/><path class="e" d="m92.16,24.45v4.57h-13.97v-4.57h3.67v-10.71h-3.45v-4.57h9.25v5.04c.36-1.45,1.17-2.7,2.43-3.76s2.76-1.59,4.48-1.59c.29,0,.63,0,1.03.02v5.99c-1.6,0-2.91.18-3.92.53s-1.85,1.13-2.5,2.34c-.66,1.2-.98,2.62-.98,4.27v2.44h3.96Z"/><path class="e" d="m110.73,33.41v4.57h-13.66v-4.57h3.34V13.74h-2.79v-4.57h9.13v2.49c1.76-1.87,3.73-2.8,5.91-2.8,2.62,0,4.69,1.04,6.2,3.13,1.51,2.08,2.27,4.52,2.27,7.29,0,2.94-.78,5.37-2.34,7.3s-3.64,2.89-6.23,2.89c-2.12,0-4.05-.83-5.8-2.48v6.42h3.98Zm3.9-14.25c0-1.74-.36-3.04-1.08-3.9s-1.66-1.29-2.84-1.29-2.16.44-2.9,1.32c-.75.88-1.12,2.2-1.12,3.95,0,1.57.37,2.84,1.11,3.79s1.72,1.44,2.95,1.44c1.13,0,2.06-.43,2.79-1.29.72-.86,1.09-2.2,1.09-4.02Z"/><path class="e" d="m139.79,23.03l4.92,1.58c-2.06,3.24-5.29,4.86-9.68,4.86-3.5,0-6.23-.92-8.19-2.77-1.96-1.85-2.94-4.27-2.94-7.28s1.01-5.62,3.04-7.67c2.02-2.05,4.6-3.08,7.73-3.08,2.27,0,4.23.57,5.89,1.72,1.65,1.15,2.8,2.58,3.45,4.29.64,1.71.96,3.62.96,5.72h-14.79c.1,1.8.67,3.08,1.71,3.83s2.15,1.13,3.31,1.13c1.52,0,3.05-.78,4.59-2.34Zm-1.21-6.15c-.15-1.11-.58-2.05-1.3-2.83-.72-.78-1.7-1.17-2.95-1.17-2.32,0-3.68,1.33-4.06,4h8.31Z"/><path class="e" d="m161.31,24.45v4.57h-13.97v-4.57h3.67v-10.71h-3.45v-4.57h9.25v5.04c.36-1.45,1.17-2.7,2.43-3.76s2.76-1.59,4.48-1.59c.29,0,.63,0,1.03.02v5.99c-1.6,0-2.91.18-3.92.53s-1.85,1.13-2.5,2.34c-.66,1.2-.98,2.62-.98,4.27v2.44h3.96Z"/><path class="e" d="m167.05,13.74v-4.57h9.35v15.28h2.95v4.57h-12.3v-4.57h3.01v-10.71h-3.01Zm2.79-10.26c0-.95.34-1.77,1.02-2.45s1.49-1.02,2.45-1.02,1.79.34,2.46,1.02c.67.68,1,1.5,1,2.45s-.34,1.77-1.02,2.44-1.49,1.01-2.45,1.01-1.76-.34-2.44-1.02c-.68-.68-1.03-1.49-1.03-2.43Z"/><path class="e" d="m191.69,29.47c-2.93,0-5.4-.93-7.41-2.78-2.02-1.85-3.02-4.39-3.02-7.62s1.01-5.77,3.02-7.62c2.02-1.85,4.49-2.78,7.41-2.78s5.41.93,7.42,2.78,3.01,4.39,3.01,7.62-.99,5.71-2.98,7.59-4.47,2.81-7.45,2.81Zm-.02-4.92c1.18,0,2.13-.45,2.86-1.35.73-.9,1.1-2.32,1.1-4.25,0-1.7-.36-3.02-1.07-3.97-.71-.95-1.67-1.43-2.89-1.43-2.61,0-3.92,1.89-3.92,5.66,0,1.54.32,2.82.97,3.82.65,1,1.63,1.51,2.94,1.51Z"/><path class="e" d="m8.42,36.48v-.77h2.15c0,.56-.1,1-.3,1.32-.2.33-.49.58-.88.77-.38.19-.81.28-1.29.28-.83,0-1.46-.22-1.91-.67-.44-.44-.66-1.01-.66-1.69,0-.47.11-.89.33-1.26.22-.36.52-.64.89-.82s.77-.28,1.21-.28c.62,0,1.09.15,1.44.45v-.38h.78v1.63h-.78c-.08-.27-.24-.49-.48-.65s-.5-.24-.78-.24c-.36,0-.68.13-.93.39-.26.26-.39.62-.39,1.07,0,.52.13.92.39,1.19.26.27.58.41.96.41.28,0,.51-.07.69-.2.18-.13.31-.32.38-.56h-.81Z"/><path class="e" d="m23.37,37.24v.77h-2.25v-.77h.59l-.22-.79h-1.19l-.24.79h.61v.77h-2.03v-.77h.57l.89-3.04h-.61v-.77h2.99v.77h-.62l.96,3.04h.55Zm-2.07-1.46l-.38-1.38-.41,1.38h.79Z"/><path class="e" d="m31.9,38.02v-.77h.66v-3.04h-.66v-.77h2.52v.77h-.67v3.04h1.35v-1.42h.89v2.19h-4.1Z"/><path class="e" d="m44.87,38.02v-.77h.55v-3.04h-.55v-.77h4.04v1.45h-.88v-.68h-1.42v1.06h1.15v.77h-1.15v1.2h1.42v-.69h.88v1.46h-4.04Z"/><path class="e" d="m62.23,37.24v.77h-1.4l-1.04-2.01h-.52v1.23h.57v.77h-2.4v-.77h.63v-3.04h-.63v-.77h2.77c.52,0,.9.13,1.13.39.23.26.34.56.34.89,0,.52-.26.9-.79,1.14l.74,1.38h.59Zm-2.96-1.96h.41c.51,0,.76-.18.76-.54,0-.18-.06-.31-.17-.4-.12-.09-.27-.13-.48-.13h-.52v1.07Z"/><path class="e" d="m71.43,38.02v-.77h.7v-3.04h-.7v-.77h2.59v.77h-.7v3.04h.7v.77h-2.59Zm.97-5.02l.5-1.05h1.24l-1.2,1.05h-.54Z"/><path class="e" d="m88.1,37.24v.77h-2.25v-.77h.59l-.22-.79h-1.19l-.24.79h.61v.77h-2.03v-.77h.57l.89-3.04h-.61v-.77h2.99v.77h-.62l.96,3.04h.55Zm-2.07-1.46l-.38-1.38-.41,1.38h.79Z"/><path class="e" d="m120,38.05l-1.36-3.84h-.55v-.77h2.34v.77h-.59l.77,2.3.77-2.3h-.58v-.77h2.03v.77h-.56l-1.31,3.84h-.95Z"/><path class="e" d="m131.69,38.02v-.77h.7v-3.04h-.7v-.77h2.59v.77h-.7v3.04h.7v.77h-2.59Z"/><path class="e" d="m147.9,37.24v.77h-1.4l-1.04-2.01h-.52v1.23h.57v.77h-2.4v-.77h.63v-3.04h-.63v-.77h2.77c.52,0,.9.13,1.13.39.23.26.34.56.34.89,0,.52-.26.9-.79,1.14l.74,1.38h.59Zm-2.96-1.96h.41c.51,0,.76-.18.76-.54,0-.18-.06-.31-.17-.4-.12-.09-.27-.13-.48-.13h-.52v1.07Z"/><path class="e" d="m156.75,38.02v-.77h.69v-3.04h-.69v1.07h-.79v-1.84h4.16v1.84h-.78v-1.07h-.71v3.04h.69v.77h-2.57Z"/><path class="e" d="m168.39,34.21v-.77h2.19v.77h-.45v2.07c0,.28.01.48.03.6.02.12.08.22.18.3s.22.12.38.12.29-.04.39-.11.17-.17.2-.28c.03-.11.04-.34.04-.69v-2.01h-.45v-.77h1.83v.77h-.56v2.29c0,.31-.02.54-.05.68s-.11.28-.23.42-.29.25-.52.34c-.23.09-.48.13-.78.13-.34,0-.63-.05-.86-.14-.24-.1-.42-.22-.53-.38s-.19-.32-.22-.47c-.03-.16-.05-.42-.05-.8v-2.07h-.54Z"/><path class="e" d="m185.46,37.24v.77h-2.25v-.77h.59l-.22-.79h-1.19l-.24.79h.61v.77h-2.03v-.77h.57l.89-3.04h-.61v-.77h2.99v.77h-.62l.96,3.04h.55Zm-2.07-1.46l-.38-1.38-.41,1.38h.79Z"/><path class="e" d="m193.58,38.02v-.77h.66v-3.04h-.66v-.77h2.52v.77h-.67v3.04h1.35v-1.42h.89v2.19h-4.1Z"/></g></g></svg>